<svg xmlns="http://www.w3.org/2000/svg" width="100" height="100" viewBox="0 0 100 100">
  <defs>
    <linearGradient id="spGrad" x1="0%" y1="0%" x2="100%" y2="100%">
      <stop offset="0%" style="stop-color:#EF4444;stop-opacity:1" />
      <stop offset="100%" style="stop-color:#F59E0B;stop-opacity:1" />
    </linearGradient>
  </defs>
  <rect width="100" height="100" rx="12" fill="url(#spGrad)"/>
  <g transform="translate(50, 50)">
    <!-- Signal waveform -->
    <path d="M -35,0 L -30,-15 L -25,10 L -20,-20 L -15,25 L -10,-10 L -5,15 L 0,-30 L 5,20 L 10,-15 L 15,10 L 20,-25 L 25,15 L 30,-10 L 35,0" 
          fill="none" stroke="white" stroke-width="3" stroke-linecap="round" stroke-linejoin="round"/>
    <!-- Baseline -->
    <line x1="-40" y1="0" x2="40" y2="0" stroke="white" stroke-width="1" opacity="0.5"/>
    <!-- Grid lines -->
    <line x1="-40" y1="-20" x2="40" y2="-20" stroke="white" stroke-width="0.5" opacity="0.3"/>
    <line x1="-40" y1="20" x2="40" y2="20" stroke="white" stroke-width="0.5" opacity="0.3"/>
    <line x1="-20" y1="-35" x2="-20" y2="35" stroke="white" stroke-width="0.5" opacity="0.3"/>
    <line x1="0" y1="-35" x2="0" y2="35" stroke="white" stroke-width="0.5" opacity="0.3"/>
    <line x1="20" y1="-35" x2="20" y2="35" stroke="white" stroke-width="0.5" opacity="0.3"/>
  </g>
</svg>